<svg height="28" xmlns="http://www.w3.org/2000/svg" viewBox="0 0 735.8 242.3"><path d="M34.9 90.6H81.4v21H10.3V17.1H79.5V37.7H34.9V53.8H76.8V73.5H34.9Zm85.9-.8h45.6v21.8H95.1V17.1h25.7Zm129.6 24c-15.5 0-27.9-4.4-37.1-13.4s-13.9-20.8-13.9-35.5s4.8-27.3 14.3-36.4S235.6 14.8 251 14.8c12.8 0 24.6 4.3 35.3 12.8L273.1 45.3c-7.6-5.7-15.1-8.5-22.7-8.5s-13.8 2.5-18.4 7.4s-6.9 11.5-6.9 19.6s2.3 15.2 7 20.3s11 7.6 18.9 7.6s15.1-2.9 22.6-8.6l13.3 17.8C276.7 109.5 264.5 113.8 250.4 113.8Zm43.6-2.2V44.9h21.9c0 3.5-.3 7.7-.8 12.7h.4a19.8 19.8 0 017-10.2a18.2 18.2 0 0111.9-4a22.4 22.4 0 019.7 1.9l-6 20.6a22.8 22.8 0 00-7.1-1.3a12.2 12.2 0 00-9.1 3.4q-3.3 3.4-3.3 10.5v33.1ZM416.5 75.1a36.2 36.2 0 01-1.1 9.6H371.2a11.2 11.2 0 005.5 7.5a17.7 17.7 0 009.1 2.6a26.7 26.7 0 0016.6-5.5l9.9 13.9c-7.1 6.6-16.4 9.8-27.9 9.8s-20.1-2.9-27.2-8.7s-10.8-14.4-10.8-25.8s3.6-20 11-26a38.9 38.9 0 0125.7-9.1q14.7 0 24 8.4C413.4 57.5 416.5 65.2 416.5 75.1ZM382.5 61a11.4 11.4 0 00-8 2.9c-2.2 2-3.4 4.8-3.6 8.5h22.3c.3-3.7-.5-6.5-2.7-8.5A11 11 0 00382.5 61Zm71.4-17.7c11.7 0 20.3 2.1 25.9 6.4s8.4 10.9 8.4 20v41.9H465.6c0-3.6.3-7.8.8-12.7H466a21.1 21.1 0 01-8.1 10a24.7 24.7 0 01-14 3.9q-10.2 0-16.5-6c-4.2-3.9-6.3-9.1-6.3-15.5s2.5-12.1 7.4-16s11.4-5.8 19.5-5.8a40.4 40.4 0 0115.7 2.8h0c0-3.9-1-6.7-3.1-8.4s-5.6-2.6-10.3-2.6s-12.7 1.2-20.6 3.7l-4-16.5A82.4 82.4 0 01453.9 43.3Zm-1.4 51.1a12 12 0 007.7-2.4a9.9 9.9 0 003.8-6.8a29.6 29.6 0 00-10.8-2.3q-7.8 0-7.8 6C445.4 92.6 447.8 94.4 452.5 94.4Zm92.3-3 5.4 17.3a40.4 40.4 0 01-19.3 4.5c-16.3 0-24.5-9-24.5-27V63.5H495.7V44.9h10.7V28.8l24.4-2.7V44.9h15.3V63.5H530.8V85.4c0 5 2.3 7.5 6.8 7.5A18.6 18.6 0 00544.8 91.4Zm24.9-51.2a14.6 14.6 0 01-10.2-3.6a11.8 11.8 0 01-3.9-9.1a12.1 12.1 0 013.9-9.3a15 15 0 0110.2-3.5a14.9 14.9 0 0110 3.5a12.1 12.1 0 013.9 9.3a11.8 11.8 0 01-3.9 9.1A14.4 14.4 0 01569.7 40.2Zm-12.6 71.4V44.9h24.6v66.7Zm57.4 0L586.4 44.9h26.7l5.8 15a165.8 165.8 0 015.2 15.9A98.7 98.7 0 01627 87.5h.3a98.7 98.7 0 012.9-11.7a165.8 165.8 0 015.2-15.9l5.8-15h25.5l-27.8 66.7ZM737.7 75.1a40.8 40.8 0 01-1.1 9.6H692.3a11.6 11.6 0 005.5 7.5a17.7 17.7 0 009.1 2.6a26.7 26.7 0 0016.6-5.5l10 13.9c-7.1 6.6-16.4 9.8-28 9.8s-20-2.9-27.2-8.7s-10.8-14.4-10.8-25.8s3.7-20 11-26a38.9 38.9 0 0125.7-9.1c9.8 0 17.8 2.8 24.1 8.4S737.7 65.2 737.7 75.1ZM703.7 61a11.5 11.5 0 00-8.1 2.9c-2.2 2-3.4 4.8-3.6 8.5h22.3c.4-3.7-.5-6.5-2.6-8.5A11.1 11.1 0 00703.7 61ZM86.9 224.7l-9.5-20.8h-52l-9.3 20.8H1.9l42.4-94.4H58.8l42.4 94.4ZM51.4 143.4 43.9 161 30.6 192.1H72.2L59 160.8c-4.4-10-6.8-15.8-7.3-17.4Zm89.5 82.8c-9.9 0-18.2-3.1-24.8-9.2s-9.9-14.7-9.9-25.5s3.3-19.2 10-25.5s15.1-9.4 25.2-9.4s16.7 2.5 22.9 7.4l-6.3 9.4a26.9 26.9 0 00-16.7-5.4a22.2 22.2 0 00-16.2 6.3c-4.2 4.2-6.4 9.9-6.4 17s2.2 13 6.4 17.2a22.1 22.1 0 0015.8 6.2a28.3 28.3 0 0018.5-6.6l5.8 10Q155.3 226.2 140.9 226.2Zm60-69.4c21.5 0 32.3 8.7 32.3 26v41.9h-11q0-7.8.3-11.7h-.3a22 22 0 01-10.2 9.5a32.5 32.5 0 01-14.5 3.3c-7.2 0-13.2-1.8-18.2-5.5s-7.4-8.9-7.4-16s2.6-12.5 7.8-16.4s11.4-5.7 18.9-5.7s16.2 1.7 22 5.1v-4.5q0-8-5.7-11.4t-14.7-3.6a53.1 53.1 0 00-20.1 4.3L176.9 162A60.3 60.3 0 01200.9 156.8Zm-1.1 58.5a23.3 23.3 0 0014.3-4.6A17.1 17.1 0 00221 198c-5.7-3.7-12.4-5.5-20.1-5.5c-4.8 0-8.7.9-11.8 2.9a9.3 9.3 0 00-4.7 8.4a9.7 9.7 0 004.6 8.5A19.5 19.5 0 00199.8 215.3Zm79.1 10.9c-9.7 0-17.7-3.2-23.9-9.5s-9.3-14.7-9.3-25.2s3.1-18.8 9.2-25.3s14.1-9.6 23.7-9.6a30.1 30.1 0 0115.2 3.8a24.7 24.7 0 019.7 9.8h.2a165.3 165.3 0 01-.9-16.9v-23h12.5v94.4H303.6v-12h-.3c-1.6 3.7-4.6 6.9-9.1 9.5A28.6 28.6 0 01278.9 226.2Zm1.2-11.5c6.7 0 12.1-2.1 16.3-6.4s6.4-9.8 6.4-16.6s-2.1-12.7-6.3-17.1a21.3 21.3 0 00-16.1-6.6a21 21 0 00-15.9 6.5c-4.2 4.3-6.2 9.9-6.2 16.6s2 12.7 6.1 17.1S273.7 214.7 280.1 214.7Zm114.7-24.1c0 1.3-.1 3.2-.3 5.5H341.8a18.3 18.3 0 006.6 13.8c4 3.4 9.1 5.1 15.2 5.1c8.8 0 16-2.6 21.8-8l6.3 8.7a32.7 32.7 0 01-12.8 7.9a48.9 48.9 0 01-15.5 2.6q-15.4 0-24.9-9.6c-6.3-6.4-9.4-14.8-9.4-25.2s3.2-18.6 9.6-25.1s14.7-9.7 24.9-9.7s16.9 2.9 22.6 8.7S394.8 179.6 394.8 190.6Zm-31.7-22.8c-5.6 0-10.3 1.5-14.1 4.6s-6.2 7.6-7.1 13.5h41.2c-.4-5.9-2.4-10.4-5.9-13.5S368.9 167.8 363.1 167.8Zm123-11c8.4 0 15 2.6 19.7 7.7s7.2 11.8 7.2 20.1v40.1H500.4V186.4c0-5.6-1.3-10-4.1-13.3s-6.8-4.9-11.9-4.9a17.3 17.3 0 00-13 5.2a19 19 0 00-5 13.4v37.9H453.9v-38c0-5.7-1.5-10.2-4.4-13.5s-7-5-12.2-5s-9.4 1.7-12.6 5.2s-4.8 7.9-4.8 13.4v37.9H407.3V158.1h11.8a78.1 78.1 0 01-1.1 12.4h.3a18.5 18.5 0 017.9-10.1a24.8 24.8 0 0113.3-3.6c11.2 0 18.6 4.7 22.2 13.9C466.3 161.5 474.5 156.8 486.1 156.8Zm91.5 1.3h13.7l-32.7 81.3c-4.7 11.7-11.7 17.6-21 17.6a24.9 24.9 0 01-13.1-3.8l4.7-10.3a12.7 12.7 0 007.7 2.3A8.8 8.8 0 00543 243c1.6-1.5 3.1-4.1 4.7-7.8l3.6-8.7-28.7-68.4h13.6l13.4 32.7c2.4 6.2 5.1 13.4 8.2 21.8h.3c4-11.5 6.6-18.7 7.7-21.6Z" fill="currentColor"></path></svg>